<svg id="Layer_1" data-name="Layer 1" xmlns="http://www.w3.org/2000/svg" viewBox="0 0 1136.76 421.05"><defs><style>.cls-1{fill:#e63312;}.cls-2{font-size:146.15px;letter-spacing:-0.01em;}.cls-2,.cls-4{font-family:Montserrat-ExtraLight, Montserrat;font-weight:200;}.cls-3{letter-spacing:-0.02em;}.cls-4{font-size:26px;letter-spacing:-0.01em;}.cls-5{letter-spacing:-0.02em;}.cls-6{letter-spacing:-0.02em;}.cls-7{letter-spacing:-0.02em;}.cls-8{letter-spacing:-0.02em;}.cls-9{letter-spacing:-0.01em;}.cls-10{letter-spacing:-0.01em;}.cls-11{letter-spacing:-0.02em;}.cls-12{letter-spacing:-0.01em;}.cls-13{letter-spacing:-0.01em;}.cls-14{letter-spacing:-0.02em;}</style></defs><path class="cls-1" d="M1113.32,116.8c-.47,25.72-11.64,55.35-37.43,64.17-15.11,1.86-29.73,5.65-43.36,12.56,28.63,1,66.09,11.43,79-23A61.91,61.91,0,0,1,1075.84,214c-25.63,1.22-58.2-2.42-77.68,18.32l6.71-3.47c5.44,19,35.46,8.77,29.33,48.17,1.08-19-18.7-23.87-32.52-30.75,5,8.29,12.92,13.86,20,20.14,5.76,10.56,5.29,27.35-1.07,37.69,8.53-22.39-15.22-33.81-29.19-46.3,3.67,11.59,12.21,20.1,18.2,30.15,2.89,15.85-.74,31.57-11.93,43.09,24.73-41.47-54.12-67.77-12.16-123.64-5.86,3.41-13.84,15.87-19.55,29.62-5.42-148.14,141.33-83.35,134.6-183.41a90,90,0,0,1-18.74,82.11c-17.76,10.11-39.36,15.74-54.29,30.68C1062.07,158.4,1107.63,162.68,1113.32,116.8Z"/><path d="M932.92,147.62c-5.52-12.31,13.6-15.84,20.61-8.73l6.88-2.56c-2.4-2.32-9.53-3.79-18.08-3.59,11.85-22.29,34.14,5.36,49.52-6.17-.78,4.42-3.24,6.46-10.83,9.06l9.18,6.69a120.21,120.21,0,0,0-28.52,57.37l-.61.1c-6.47-14.81-4.34-31.8-10.66-46.54C946.92,147.14,939.3,141.71,932.92,147.62Z"/><text class="cls-2" transform="translate(207.67 301.13)">Aa<tspan class="cls-3" x="183.57" y="0">r</tspan><tspan x="237.5" y="0">au hilft</tspan></text><text class="cls-4" transform="translate(207.1 360.74) scale(0.98 1)">Das In<tspan class="cls-5" x="78.86" y="0">f</tspan><tspan x="86.63" y="0">o</tspan><tspan class="cls-6" x="102.36" y="0">r</tspan><tspan x="111.98" y="0">mations-Net</tspan><tspan class="cls-7" x="271.23" y="0">z</tspan><tspan class="cls-8" x="283.63" y="0">w</tspan><tspan x="305.05" y="0">e</tspan><tspan class="cls-6" x="320.19" y="0">r</tspan><tspan class="cls-9" x="329.81" y="0">k für die Si</tspan><tspan class="cls-6" x="459.26" y="0">c</tspan><tspan class="cls-10" x="473.06" y="0">h</tspan><tspan class="cls-9" x="490.27" y="0">e</tspan><tspan class="cls-11" x="505.41" y="0">r</tspan><tspan class="cls-12" x="515.03" y="0">h</tspan><tspan class="cls-13" x="532.24" y="0">eit dei</tspan><tspan class="cls-10" x="608.86" y="0">n</tspan><tspan class="cls-9" x="626.07" y="0">er St</tspan><tspan class="cls-12" x="682.83" y="0">a</tspan><tspan class="cls-14" x="697.65" y="0">d</tspan><tspan class="cls-13" x="714.55" y="0">t!</tspan></text></svg>