<svg id="Layer_1" data-name="Layer 1" xmlns="http://www.w3.org/2000/svg" viewBox="0 0 943.74 969.57"><defs><style>.cls-1{fill:#fefefe;}.cls-2{fill:#666;}.cls-3{fill:#e53312;}.cls-4{fill:#4c4c4c;}.cls-5{fill:#494949;}.cls-6{fill:#fdfdfd;}.cls-7{fill:#e43312;}.cls-8{fill:#96210c;}</style></defs><path class="cls-1" d="M841,68.44c1,0,2.39-.39,1.87,1.54a4.66,4.66,0,0,0,0,1.24q0,413.63.06,827.25c0,2.31-.52,2.83-2.84,2.83q-369.58-.09-739.19,0,0-415,0-830c0-1.82-.17-3.49,2.49-2.78a4.39,4.39,0,0,1,.87,3.19c0,1.44,0,2.88,0,4.32q0,230.49,0,461a24.2,24.2,0,0,0,.26,5.83c.54,6.86.88,13.74,1.47,20.6a350.85,350.85,0,0,0,6.74,44.23,364.66,364.66,0,0,0,24,72.91,368.27,368.27,0,0,0,86.46,119.54A366,366,0,0,0,414,892.59a346.76,346.76,0,0,0,43.89,4.2c6.06.2,12.13.62,18.19.48,34.32-.78,68.06-5.47,101-15.36A377.29,377.29,0,0,0,629,862.05a360.5,360.5,0,0,0,85.69-56.23A367.74,367.74,0,0,0,773,741a371.55,371.55,0,0,0,30-50.69,367.12,367.12,0,0,0,35-122.6c.7-6.85,1.39-13.7,1.47-20.61,1.39-113.24.24-226.49.57-339.73.13-44.38,0-88.75,0-133.13a17.72,17.72,0,0,1,.28-4.93A4,4,0,0,1,841,68.44Z"/><path class="cls-2" d="M103.81,543.63c-.74-2.3-.51-4.68-.51-7q-.06-143.92-.06-287.83,0-88,0-176c0-1.44,0-2.88.06-4.32H841l-.13.69a4.46,4.46,0,0,1-3.18.91c-1.55.06-3.09,0-4.64,0H111.44c-7.12,0-6.5-.53-6.5,6.51q0,230.28,0,460.57C104.91,539.33,105.57,541.71,103.81,543.63Z"/><path d="M103.81,543.63q0-6.93,0-13.87,0-228.57-.05-457.15c0-2.71.55-3.63,3.5-3.63q365.25.12,730.49.08c1,0,2.06,0,3.09.07,0,1.13.08,2.26.08,3.39q0,228,0,455.91c-.14,88.39-28.1,167.22-84.37,235.4-53.05,64.28-120.69,105.79-201.86,124.88a349.19,349.19,0,0,1-103.9,8.68q-151.1-10.2-253.21-122.25C155.13,728.51,127.24,674,112.89,612.65A344.41,344.41,0,0,1,103.81,543.63Z"/><path class="cls-1" d="M472.21,218.36q174.51,0,349-.08c3.14,0,3.78.77,3.78,3.82-.09,103.16.27,206.33-.21,309.49-.36,79.1-25,150.38-73.46,212.83-52.88,68.1-121.87,111.31-206.2,129.72a340.47,340.47,0,0,1-101,6.54c-73.41-6-138.93-32.2-195.77-79C187.91,751.8,148.21,688.55,129.3,612.43a351,351,0,0,1-10-85q.06-152.75,0-305.48c0-2.89.54-3.68,3.59-3.68Q297.55,218.42,472.21,218.36Z"/><path class="cls-3" d="M472.08,85H820.46c4.88,0,4.31-.5,4.31,4.25q0,58.07.07,116.13c0,2.7-.64,3.42-3.39,3.42q-349.16-.1-698.3,0c-2.65,0-3.46-.55-3.45-3.35q.15-58.53,0-117.06c0-3.05,1.09-3.43,3.7-3.43Q297.74,85,472.08,85Z"/><path d="M213.37,255.55c13,2.34,26.1,4.63,39.13,7q46.08,8.49,92.14,17.09c11.3,2.1,20.67,7.95,28.91,15.6,17.68,16.4,27.25,36.49,26.95,60.94-.12,10.39-.16,20.79.07,31.19.06,3-.8,3.84-3.77,4.15-21.23,2.21-35.55,24.57-28.38,44.45,4.35,12.05,13.89,18.45,25.67,22,19.4,5.81,38.28-9.39,42.51-22.25a32.52,32.52,0,0,0,1.27-10.32c-.06-33.66-.31-67.32-.34-101a14.23,14.23,0,0,0-4.84-11.16c-5-4.61-9.88-9.33-14.93-13.88-1.44-1.3-1.39-2-.05-3.35,6-6.06,11.27-6.92,18.87-2.84,6.88,3.69,13.73,7.41,20.61,11.09,1.35.72,2.74,1.56,4.37,1.23a5.3,5.3,0,0,0,4.57-4.41c.47-2.5-.73-4.19-2.84-5.26q-16.07-8.14-32.17-16.21a6.48,6.48,0,0,0-.85-.38c-7-2.28-13.58,1-15.35,8.2-.74,3-2.66,1.85-4.2,2-2.17.26-1.41-1.58-1.44-2.6-.13-3.7.2-7.44-.22-11.11-1.06-9.21,6.31-19.35,19.2-19.47,12.55-.12,25.11-.28,37.67-.31a7.06,7.06,0,0,0,5.88-2.52c5.17-5.92,11.68-8.48,19.67-8.41,28.82.27,57.65.19,86.47.25a4.08,4.08,0,0,1,2,.36c-19.59,12.36-41.11,20.6-62.6,29.36,10.15,6,13.23,15.44,13.27,26.29q.1,34.74,0,69.49c-.05,11.54-3.46,21.62-12.25,29.85-8.06,7.56-11.94,17.41-12,28.5,0,7.46,3.76,13.4,8.84,18.42,18.63,18.39,41.16,13,54.57-1.68,14.7-16.11,7.76-42.87-13.08-51.86a31.1,31.1,0,0,0-11-2.75c-1.58-.06-2.07-.63-2-2.23.12-13.7-.27-27.4.29-41.07,1.16-28.59,24.91-59.91,51.24-67.2,11-3,22.33-4.55,33.55-6.63q49.71-9.19,99.44-18.28c.91-.17,1.83-.26,2.75-.38.55-.1,1.27-.59,1.28.56q-44.07,23.75-88.12,47.5c-4.08,2.2-5.7,5.18-5,9a8.82,8.82,0,0,0,7.6,7.08c2.46.34,4.64-.59,6.77-1.65,8.17-4.09,16.32-8.22,24.52-12.26q40.18-19.8,80.41-39.51c5.63-2.74,9.39-6.82,11.07-12.85.85-3.06,1.78-6.1,2.62-9.17a10,10,0,0,1,10.39-7.42c4.13.31,6.59,3,6.71,7.37a150.58,150.58,0,0,1-.84,16c-.67,8.72-1.55,17.42-1.83,26.18a44.93,44.93,0,0,1-32.13,41.51Q713.55,340,672.82,352.12a23.16,23.16,0,0,0-4.58,1.79,8,8,0,0,0-3.62,10.32c1.67,4.14,5.33,6,9.76,4.7,27-7.7,54.12-15.36,81.13-23.19,6.85-2,11.15-6.69,12.51-13.87.76-4,4.28-6.56,8.61-6.32,4.52.25,8,3,8,7,0,12.35-.38,24.77-2.3,36.94-2.56,16.3-17.39,29.89-34.29,31.85-11.22,1.31-22.58,1.39-33.88,2-10,.5-20,.91-29.92,1.39a19,19,0,0,0-3.36.49c-4.41,1-7.07,4.49-6.74,8.66a8.47,8.47,0,0,0,8.32,8c22,0,44.06.1,66.09-.7,7.92-.28,13.74-3.63,16-11.85,1-3.55,3.75-5.52,7.39-6.19,4.78-.88,8.86,2,9,6.89.21,11.23.15,22.59-2.09,33.53-2.84,13.9-13,21.89-25.92,26.51-8.79,3.14-17.4,1.27-26.09-.79-14.59-3.47-29.23-6.69-43.86-10a11.64,11.64,0,0,0-6.69.15,8.48,8.48,0,0,0-5.84,8.21c.14,3.55,2.5,6.36,6.43,7.3,7.2,1.72,14.42,3.32,21.63,5,14,3.19,28.07,6.27,42.06,9.59,7.74,1.83,14,.48,18.33-6.79a9.49,9.49,0,0,1,5.69-4.49c5.74-1.61,10.82,2.66,10.31,9.13-.45,5.62-1.63,11.19-2.51,16.77-1.1,6.9-2.4,13.78-3.28,20.71-1.84,14.47-10.78,22.57-23.87,26.86a32.68,32.68,0,0,1-28.14-3.06c-18.38-10.89-37-21.41-55.49-32.06-4.24-2.44-8.37-1.89-11.5,1.43-3.51,3.73-3.27,8.42.8,11.55a68.77,68.77,0,0,0,7,4.5q33.68,19.92,67.4,39.8c7.19,4.24,12.11,3.67,18.48-1.87a13.21,13.21,0,0,1,3.31-2.21c3.33-1.44,6.65-1.47,9.52,1.08s3.14,5.65,1.9,9q-3.62,9.83-7.34,19.6c-3,7.86-6.32,15.61-9.12,23.54-7.65,21.63-35.72,25.07-50,11.4-5-4.76-9.87-9.64-14.75-14.51l-59-59c-4.08-4.08-9.07-4.21-13.08-.4-3.41,3.23-3.69,7.15-.53,10.64,4,4.43,8.1,8.78,12.25,13.07q33.07,34.19,66.2,68.33c5.85,6,10.38,6.39,17.32,1.55a9,9,0,0,1,11.29,1.32,6.91,6.91,0,0,1,.19,10c-9.56,10.67-17.89,22.35-27.46,33-6.49,7.21-15.22,7.49-24,5.44-13.19-3.07-24-10.28-32.53-20.59-24.7-29.91-49.13-60.05-73.73-90.05-1.37-1.67-1.13-2.28.62-3.35,6.66-4.1,11.71-9.48,12.38-17.74.92-11.53-6.46-20.48-18.51-22.7-14.64-2.7-27.48,8-27.2,22.75.09,4.69,2.33,8.45,5.11,12q34.18,43.22,68.43,86.38c9,11.37,18,22.78,27.07,34.08,6.57,8.17,15,12.4,25.7,12.27,18.64-.23,37.28-.07,55.91-.06A31.49,31.49,0,0,1,715,718.37c7.13,2.68,11.1,8.49,11.08,16.09,0,10.17,0,20.34,0,30.51l-1.09.34c-3.63-3.54-7.41-6.93-10.83-10.65a17,17,0,0,0-14.22-6c-3.79.21-7.6,0-12.13,0,5.74,3.33,6.11,8.32,6,13.58-.23,8.44-.37,16.89-.54,25.33,0,1,0,2,0,4-1.67-1.94-2.69-3.15-3.74-4.35-3.77-4.35-7.63-8.63-11.31-13.07a10,10,0,0,0-8.32-3.88c-4.53.06-9.07.15-13.59,0-2.11-.08-2.49.66-2.5,2.59-.12,13.9-.36,27.8-.56,41.69,0,.89,0,1.77,0,3.6-3.18-6.63-5.86-12.44-8.73-18.16-6.87-13.7-14.2-27.14-24-39.05-5.19-6.31-11.75-8.75-19.78-6.7a15,15,0,0,0-6.85,4c-3.87,3.78-7.84,7.46-12.21,11.61,0-10-.32-19.3.11-28.59.27-5.78,4.2-9.66,9.06-12.45,1.68-1,3.5-1.7,5.47-2.63-5.86-7.38-11.57-14.86-17.61-22.08-3.06-3.66-8.34-3.41-11.74,0-.65.66-1.27,1.35-1.92,2-3.6,3.62-7.11,4-11.27,1.16-3.88-2.62-5-6.39-3.09-10.73.86-1.94,1-3.66-.31-5.47q-21.78-29.37-43.52-58.77a2.54,2.54,0,0,0-.55-.37c-.6.83-.33,1.77-.33,2.62,0,17,0,34,0,51a33.55,33.55,0,0,0,7.56,21.65q26,32.16,51.87,64.45c4.9,6.08,11,7.36,18,3.78a8.83,8.83,0,0,1,10.43,2,7,7,0,0,1-.08,9.61c-8,8.94-17.24,16-29.71,17.07-6.73.57-12.63-2.27-18.1-6-8.7-5.89-16.82-12.54-25.07-19-4-3.11-7.91-6.26-11.88-9.36-2.55-2-5.34-3-8.63-2-6.44,1.91-8.1,8.22-3.25,12.85,9.16,8.75,18.48,17.33,28.15,25.5a70,70,0,0,0,7.87,5.95c3.51,2.21,7,2.65,10.77.66a9.8,9.8,0,0,1,4.42-1.22,8.58,8.58,0,0,1,8.11,5.12c1.42,3.51.32,6.56-2.29,8.94-5.35,4.87-11.79,7.81-18.7,9.67-7.86,2.11-15.48,1.08-22.88-2.15a71.9,71.9,0,0,1-11.11-6c-2.24-1.48-3.08-.89-4,1.36a194.32,194.32,0,0,1-15.15,29.91,99.1,99.1,0,0,1-8.16,11.59c-1.48,1.77-2.48,1.88-4,0-6.17-7.39-10.82-15.73-15.32-24.17a132.54,132.54,0,0,1-7.87-17c-1-2.89-2.22-2.93-4.62-1.44-6.82,4.25-13.88,8.1-22.12,8.76-11.54.92-21.37-3.36-30-10.53a7.47,7.47,0,0,1-1.72-10.26,8.29,8.29,0,0,1,10.6-3.05c5.76,3,10.45,1.42,15-2.23,11.77-9.38,22.74-19.66,33.61-30a6.53,6.53,0,0,0,1.35-8.43,9,9,0,0,0-9.31-4c-2.42.5-4.24,2-6.1,3.47-11.34,8.88-22.42,18.1-34.21,26.39a36.15,36.15,0,0,1-13.59,6.32c-6.23,1.24-12.05-.12-17.62-2.86A59,59,0,0,1,352,789c-3.87-3.93-4.52-8.06-2-11.3,2.8-3.57,7.24-4.14,11.92-1.54,5,2.8,12,1.35,16.07-3.72q27.36-33.85,54.5-67.88A26.37,26.37,0,0,0,438,688.4c.26-18.83.1-37.67.1-56.71-1.13.46-1.52,1.43-2.08,2.18q-20.65,27.92-41.32,55.79c-1.85,2.49-2.51,4.6-1.05,7.58,1.83,3.74.31,7.56-3.46,10.07-3.93,2.62-7.4,2.39-10.57-.69-.89-.86-1.71-1.78-2.59-2.66-3.35-3.35-8.73-3.48-11.76.18-6,7.2-11.65,14.63-17.55,22.09a27.59,27.59,0,0,1,9.9,5.78c3,2.94,4.88,6.43,4.81,10.66-.14,8.81-.39,17.63.08,27.2-4.05-3.82-7.9-6.94-11.11-10.61-6.55-7.47-19.76-8.23-27.61,1.39-9.23,11.3-16.37,23.88-22.92,36.82-3.27,6.45-6.33,13-10.25,19.45,0-5.18,0-10.37,0-15.55-.08-9.37-.29-18.74-.23-28.11,0-2.52-.78-3.09-3.13-3-4.42.18-8.86.06-13.28,0a9.56,9.56,0,0,0-7.82,3.59c-4.84,5.7-9.79,11.31-15.14,17.47-.25-10.89-.48-21.13-.72-31.36,0-.31,0-.62,0-.93.2-4.19,1.45-7.83,6.13-10.3-5.85,0-10.94-.18-16,.06a13.34,13.34,0,0,0-9.19,4.55l-11.5,12.33-1.45-.69c0-4.27,0-8.54,0-12.81-.05-5.66.18-11.35-.28-17-.8-9.66,6.37-16.72,15.68-18a50.79,50.79,0,0,1,7.08-.43c18,0,36.05-.33,54.06.09,12.11.28,21.16-4.58,28.41-13.84,10.09-12.89,20.29-25.68,30.45-38.5q31.63-39.91,63.31-79.81c5.69-7.12,7.35-14.59,3.36-22.91s-10.77-12.24-19.67-12.65c-9.38-.43-16.92,3.17-21.7,11.44-4.14,7.16-2.69,17.09,3.17,23.51a34.63,34.63,0,0,0,4.85,4.28c4.1,3.09,4.14,3,.74,7.21l-69.92,85.6c-9,11-20,19.17-34.08,22.56-11.17,2.69-20.51.35-27.86-9.35a359.48,359.48,0,0,0-23-27.85c-3.65-3.92-3.79-7.91-.86-11a9.13,9.13,0,0,1,12.51-.67c4,3.09,8.32,3.4,12.59.77a16.23,16.23,0,0,0,3.1-2.51c26-26.82,52.29-53.42,77.84-80.7,4.27-4.55,4.44-8.39.61-12-4-3.79-8.94-3.62-13.07.49Q289.34,597.09,253,633.3a31.88,31.88,0,0,1-37.33,5.5,26.56,26.56,0,0,1-13-14.28Q194.28,602.7,186,580.84c-1.85-4.86-1.14-8.25,2-10.56s7.67-2,11.44.87c.4.31.8.64,1.18,1,6,5.27,11,5.81,18,1.71q22.48-13.14,44.89-26.4Q277.73,539,292,530.33c3.94-2.41,5.2-5.86,3.88-9.42A9.45,9.45,0,0,0,286,515a10.75,10.75,0,0,0-3.94,1.66c-18.51,10.66-37.3,20.88-55.46,32.11-15.21,9.4-36.79,2.77-46.11-9.36-3.95-5.15-5-11.16-5.94-17.26-1.77-11.07-3.59-22.13-5.35-33.2-.79-5,1.11-9,4.88-10.58s8.16-.31,10.88,4.06c4.51,7.27,10.7,8.78,18.6,6.93,20.89-4.91,41.84-9.6,62.77-14.39,5-1.14,7.62-4.27,7.19-8.48a8.41,8.41,0,0,0-9.22-7.64c-6.78.48-13.28,2.64-19.9,4.05-12.86,2.74-25.52,6.49-38.52,8.45-19.05,2.87-41.5-13.8-41.62-33.81-.05-8.42-1.22-16.83-1.24-25.28,0-5.67,1.81-8.45,6.09-9.26a9,9,0,0,1,10.33,6.36c2.45,8.15,8.27,11.43,16.17,11.71,21.92.78,43.86.67,65.78.7a8.5,8.5,0,0,0,8.51-8.14,8,8,0,0,0-6.92-8.49c-7.13-1.17-14.38-.77-21.56-1.2-13.77-.84-27.55-1.47-41.33-2.07-18.25-.78-34.47-14.36-38.37-31.36a22.6,22.6,0,0,1-.54-3.66c-.64-10.89-1.41-21.78-1.8-32.68-.23-6.3,4.84-9.88,11-8.28a7.34,7.34,0,0,1,5.78,6.12c1.32,7.09,5.6,11.71,12.29,13.65,27.11,7.9,54.27,15.57,81.42,23.29a7.61,7.61,0,0,0,9.45-4.33,8.13,8.13,0,0,0-2.56-10.18,13.75,13.75,0,0,0-4.47-2c-27.34-8.16-54.6-16.6-82-24.42-17.85-5.09-33-23.57-32.66-42.77.2-13-2.23-25.83-2.52-38.81-.13-6.25,1.61-9,6.2-9.63,5.1-.66,9.58,2.54,10.91,7.8.12.5.26,1,.35,1.5,2,10.61,7.54,17.67,17.75,22.51,33.85,16,67.29,32.92,100.87,49.52,3.69,1.83,7.27,2.28,10.71-.34,5.1-3.87,4.46-10.78-1.36-14-8-4.42-16.08-8.68-24.12-13l-64.25-34.64C212.05,255,212.76,255.38,213.37,255.55Z"/><path d="M371.49,246.93c-1.41-2.15-1-3.28.81-4.32a18,18,0,0,1,7.18-2.54,49.68,49.68,0,0,1,10.77.24c8.09.85,13,6.2,13.16,14.37.21,10.19,0,20.38.7,30.56.35,5.52,1.92,7.56,7.38,8.44,1.39.23,2,.56,1.94,2-.09,1.86-1.43,1.09-2.26,1.08-3.91-.06-7.82-.27-11.73-.34-8.16-.14-12.89-4.8-13.05-13.06-.2-10.6-.22-21.21-.52-31.81-.17-5.77-4.73-9.07-10.08-7.67A8.33,8.33,0,0,0,371.49,246.93Z"/><path class="cls-4" d="M213.37,255.55l-1.28.61-1.8-.75A2.66,2.66,0,0,1,213.37,255.55Z"/><path class="cls-5" d="M732.14,256.09l-1.28-.56c.76-.53,1.66-1,2.37-.18C733.47,255.61,732.6,255.93,732.14,256.09Z"/><path class="cls-3" d="M353.52,751.11c-11.33-10-26.94-8.41-35.87,3.76-7.45,10.16-13.08,21.37-18.43,32.73-.42.88-.49,2-1.21,2.39,0-8.16,0-16.43,0-24.69,0-5,.74-4.48-4.3-4.5-6.69,0-13.39.2-20.07-.08-5.39-.22-9.65,1.49-12.93,5.73a13.46,13.46,0,0,1-1.39,1.33,96.17,96.17,0,0,1,.06-10.09,11,11,0,0,1,11-9.67c8,0,16.05-.11,24.08.05,2.49,0,3.41-.53,3.29-3.19-.28-6,.78-5.3-5.22-5.32q-25.17-.1-50.33-.16c-8.71,0-8.74,0-15.3,5.52,0-4-.34-7.77.09-11.46.52-4.51,6.57-8.9,11.62-8.9q33.19,0,66.38,0a27.82,27.82,0,0,0,22.58-10.66c6.93-8.42,14-16.76,20.95-25.13,2.92-3.49,6.67-4.16,9.7-1.76s3,5.87.11,9.56c-8.67,11-17.42,21.9-26.14,32.84-.5.63-1,1.29-1.76,2.35,4.29.2,8.23.26,12.15.59,7.19.61,10.47,3.83,11.34,11,.21,1.73.18,3.49.26,5.24C354.27,749.48,355.18,750.65,353.52,751.11Z"/><path class="cls-3" d="M589.33,751.86c.46-4.14.58-7.76,1.33-11.25,1.05-5,4.57-7.75,9.54-8.18,2.15-.18,4.31-.32,6.47-.39s4.27,0,7.17,0c-2.61-3.33-4.78-6.13-7-8.89q-10.2-12.79-20.42-25.57c-.45-.56-.89-1.13-1.29-1.73-2.34-3.45-2.12-6.57.61-8.79s6.47-2,9.07,1c4.06,4.65,8,9.42,11.93,14.16,3.37,4,6.65,8.13,10,12.13a27.53,27.53,0,0,0,21.87,10.21h66.08c7.32,0,12.47,5,12.54,12.25,0,2.67,0,5.34,0,8-1.17.16-1.38-.86-1.9-1.38a13,13,0,0,0-9.67-4.06c-18.84.06-37.67.15-56.51.12-2.37,0-2.92.81-2.88,3,.11,5.46,0,5.46,5.55,5.46,7.1,0,14.2,0,21.31,0,6.72,0,11.45,4.69,11.56,11.37,0,2.63,0,5.27,0,8.09-1.45-.52-1.88-1.65-2.64-2.41-2.55-2.59-5.46-4.29-9.24-4.27-8.23,0-16.47.06-24.7,0-2,0-2.4.74-2.34,2.55.27,7.82.43,15.64.59,23.46,0,1,.35,2-.37,3.16-2.6-5.2-5.06-10.22-7.61-15.2a144.73,144.73,0,0,0-12.16-20c-8.79-11.94-24.54-13.55-35.68-3.66A13.25,13.25,0,0,1,589.33,751.86Z"/><path class="cls-3" d="M414.67,278.45c0-4.48.89-8,3.14-11.08a11.12,11.12,0,0,1,9.4-5c6.06,0,12.12,0,18.18,0a15.46,15.46,0,0,1,5.14.82c4.65,1.65,6.91,5.6,5.67,9.82a8.36,8.36,0,0,1-10.35,5.9,32.7,32.7,0,0,1-5.16-2,47.3,47.3,0,0,0-12.05-3.52C423.24,272.57,418.69,273.74,414.67,278.45Z"/><path class="cls-6" d="M487.59,276.87a7.48,7.48,0,1,1-7.33-7.61A7.56,7.56,0,0,1,487.59,276.87Z"/><path class="cls-7" d="M427,295.8a7.15,7.15,0,0,1,4.06,1.27c4.84,2.93,9.69,5.86,14.5,8.84,2.75,1.7,3.26,4.1,1.47,6.41-1.6,2.07-3.53,2.12-6.07-.09-5.05-4.39-10-8.85-15-13.32-.55-.5-1.71-.86-1.26-1.84A2.61,2.61,0,0,1,427,295.8Z"/><path class="cls-8" d="M353.52,751.11c1-.66.35-1.74.7-2.55a3.1,3.1,0,0,1,.46,2.83C354.15,752.83,353.87,751.45,353.52,751.11Z"/><path class="cls-7" d="M390.5,245.58c4.13.54,5.61,1.84,6.28,5.5,1.16,6.4.5,12.91,1,19.35.29,3.58.19,7.19.23,10.78s.17,6.92,2.06,10.09c-5,.14-8.17-2.77-8.31-7.9-.25-9-.31-18.07-.45-27.1C391.28,252.82,391.46,249.33,390.5,245.58Z"/></svg>