<svg id="Layer_1" data-name="Layer 1" xmlns="http://www.w3.org/2000/svg" viewBox="0 0 1898 269.6"><defs><style>.cls-1,.cls-2{fill:#ff2c3c;}.cls-2{opacity:0.5;}</style></defs><path d="M179.2,180.65c-29.9,35.56-67.91,54.26-114.52,55-7.49.12-15,.19-22.47,0a32.88,32.88,0,0,1,.13-65.73c11.86-.36,23.78.81,35.58-1.3a82.45,82.45,0,0,0,67.33-68.53c.24-1.45.54-2.88.8-4.32a11.87,11.87,0,0,1,.83,2.77c.94,17.92,5.74,34.88,13.13,51.11,5,10.94,10.86,21.39,19.33,30.14C179.3,180.06,179.25,180.36,179.2,180.65Z"/><path class="cls-1" d="M179.2,180.65c.05-.29.1-.59.14-.89A32.06,32.06,0,0,0,182,177a150.46,150.46,0,0,0,25.32-51.68c2.45-8.8,3.13-17.89,5.16-26.74,2.6,11,5.6,21.74,11.68,31.42q21,33.48,60.14,39.1c10.06,1.45,20.16.67,30.25.81,19.11.25,33.62,14.26,33.71,32.73.09,18.62-14.52,32.91-33.91,32.93-16.11,0-32.24.73-48.21-2.5C230.93,225.92,202.23,208,179.2,180.65Z"/><path d="M112.91,85.32a51.2,51.2,0,0,1-51.25,51.29c-28.15,0-51.44-23.2-51.38-51.28A51.14,51.14,0,0,1,61.91,34,50.84,50.84,0,0,1,112.91,85.32Z"/><path class="cls-1" d="M297.08,34a51.06,51.06,0,0,1,51.24,51.23c-.14,28.24-23.7,51.56-51.93,51.41s-50.77-23.17-50.73-51.8S268.3,34,297.08,34Z"/><path d="M212.52,98.57c-2,8.85-2.71,17.94-5.16,26.74A150.46,150.46,0,0,1,182,177a32.06,32.06,0,0,1-2.7,2.77C170.87,171,165,160.56,160,149.62c-7.39-16.23-12.19-33.19-13.13-51.11a11.87,11.87,0,0,0-.83-2.77c0-9.75-.12-19.51.15-29.26a33,33,0,0,1,62.91-13.72,26.49,26.49,0,0,1,2.5,11.3C211.74,75.56,210.61,87.11,212.52,98.57Z"/><path class="cls-2" d="M212.52,98.57c-2,8.85-2.71,17.94-5.16,26.74A150.46,150.46,0,0,1,182,177a32.06,32.06,0,0,1-2.7,2.77C170.87,171,165,160.56,160,149.62c-7.39-16.23-12.19-33.19-13.13-51.11a11.87,11.87,0,0,0-.83-2.77c0-9.75-.12-19.51.15-29.26a33,33,0,0,1,62.91-13.72,26.49,26.49,0,0,1,2.5,11.3C211.74,75.56,210.61,87.11,212.52,98.57Z"/><path d="M537.54,199.41v7H439.17v-5.59L525.64,87.44H440.39v-7h95.94V86L449.62,199.41Z"/><path d="M663.6,124.84v81.61h-7.78V181.19c-7.77,15.79-23.8,26-46.87,26-28.42,0-45.18-14.33-45.18-35.46,0-18.46,11.66-34.49,45.91-34.49h45.9V124.84c0-25-13.36-38.13-38.86-38.13-18.22,0-34.25,6.8-44.94,17l-4.37-5.83C579.56,86.46,597.77,79.42,617,79.42,647.08,79.42,663.6,95.21,663.6,124.84Zm-8,45.18V143.79h-45.9c-27.45,0-37.9,11.65-37.9,27.44,0,18,14.09,29.15,37.65,29.15C632.75,200.38,647.81,189.45,655.58,170ZM588.06,44.2a7.52,7.52,0,0,1,7.28-7.53,7.41,7.41,0,0,1,0,14.82A7.47,7.47,0,0,1,588.06,44.2Zm40.8,0a7.36,7.36,0,0,1,7.29-7.53,7.41,7.41,0,0,1,0,14.82A7.31,7.31,0,0,1,628.86,44.2Z"/><path d="M922.51,132.37v74.08h-8V132.86c0-30.12-15.55-45.91-42-45.91-30.36,0-49.31,20.4-49.31,51.49v68h-8V132.86c0-30.12-15.54-45.91-41.77-45.91-30.61,0-49.31,20.4-49.31,51.49v68h-8V80.39h7.77v30.36c7.77-19.19,25.5-31.33,50-31.33,24,0,41.54,11.66,47.12,34.25,7.29-20.41,26-34.25,52-34.25C903.32,79.42,922.51,97.64,922.51,132.37Z"/><path d="M1079.17,144.51H968.65c.49,32.79,24.05,55.38,56.11,55.38,16.52,0,32.06-6.07,41.78-18.7l5.1,5.34c-11.42,13.61-28.42,20.65-46.88,20.65-37.16,0-63.88-26.47-63.88-63.88s25.26-63.88,59.27-63.88c33.52,0,59,26,59,62.91ZM968.9,138h102.74c-1.94-29.64-23.08-51.25-51.49-51.25C991.49,86.71,970.6,108.32,968.9,138Z"/><path d="M1160.77,190.42l3.89-6.31c9.47,8.5,26.47,16,46.15,16,28.41,0,39.83-10.69,39.83-26.24,0-39.83-85.25-11.65-85.25-61,0-18,14.57-33.52,46.15-33.52,15.54,0,32.54,5.1,42.26,12.87l-4.13,6.32c-10.2-8-24.53-11.9-38.38-11.9-26.23,0-37.65,11.41-37.65,26,0,41,85,13.35,85,61.2,0,19.68-16.28,33.28-48.1,33.28C1189.92,207.18,1170.49,200.14,1160.77,190.42Z"/><path d="M1353.87,198.44c-6.08,5.83-16,8.74-25.27,8.74-20.89,0-32.06-12.63-32.06-32.3V87.44h-23.8v-7h23.8V52.7h8V80.39h41.53v7h-41.53v86.22c0,17,8.5,26.48,24.77,26.48a30.26,30.26,0,0,0,20.41-7.53Z"/><path d="M1477.49,124.84v81.61h-7.77V181.19c-7.77,15.79-23.8,26-46.88,26-28.41,0-45.17-14.33-45.17-35.46,0-18.46,11.65-34.49,45.9-34.49h45.91V124.84c0-25-13.36-38.13-38.86-38.13-18.22,0-34.25,6.8-44.94,17l-4.37-5.83c12.14-11.42,30.36-18.46,49.55-18.46C1461,79.42,1477.49,95.21,1477.49,124.84Zm-8,45.18V143.79h-45.91c-27.44,0-37.89,11.65-37.89,27.44,0,18,14.09,29.15,37.65,29.15C1446.65,200.38,1461.71,189.45,1469.48,170Z"/><path d="M1586.79,79.42v8h-2.19c-29.39,0-46.63,19.67-46.63,52v67h-8V80.39h7.78v30.36C1545,90.84,1562,79.42,1586.79,79.42Z"/><path d="M1606.46,143.3c0-37.65,26.48-63.88,62.67-63.88,18.94,0,35.94,7.29,46.63,21.62l-6.07,5.1C1700.22,93,1685.4,87,1669.13,87c-31.34,0-54.65,22.83-54.65,56.35,0,33.76,23.31,56.59,54.65,56.59,16.27,0,31.09-6.07,40.56-19.18l6.07,4.85c-10.69,14.33-27.69,21.62-46.63,21.62C1632.94,207.18,1606.46,181,1606.46,143.3Z"/><path d="M1862.22,132.37v74.08h-8V132.86c0-30.12-16-45.91-43.48-45.91-31.58,0-50.76,20.4-50.76,51.49v68h-8V26.23h8v84.28c8.25-19,26.23-31.09,51.49-31.09C1842.31,79.42,1862.22,97.64,1862.22,132.37Z"/></svg>